<?xml version="1.0" encoding="UTF-8"?>
<svg id="Layer_1" xmlns="http://www.w3.org/2000/svg" width=".67in" height=".64in" version="1.1" viewBox="0 0 48 46">
  <!-- Generator: Adobe Illustrator 30.3.0, SVG Export Plug-In . SVG Version: 2.1.3 Build 182)  -->
  <path d="M23.52,6.23c-.28.93-.97,1.34-1.86,1.28l-3.49.05c-1.02.02-1.92.24-2.89.52-2.25.66-4,2.29-4.87,4.49-.64,1.63-.96,3.41-.97,5.2l-.03,24.48c0,.99-.95,1.53-1.78,1.52l-6.05-.02c-.77,0-1.58-.66-1.58-1.49V1.21C.28.6.74.13,1.41,0l6.14.02c.55.27,1.02.56,1.11,1.22l.21,5.55c.01.37-.13.77.2,1.09C10.61,2.87,13.59.08,18.95.02h3.42c.6.26.95.63,1.16,1.25v4.96Z" fill="#14b8a6"/>
  <path d="M38.98,42.06c-.55.46-1.07.85-1.74,1.21l-3.97-6.55c-.03-.32.99-.8,1.06-.79.14,0,.31.15.37.3.2.46.54.75.82,1.14l3.45,4.69Z" fill="#14b8a6"/>
  <path d="M47.55,29.64l-6.49-1.85c-.34-.1-.72-.15-.93-.47l.35-1.19,7.52,1.5c0,.68-.17,1.33-.45,2.01Z" fill="#14b8a6"/>
  <path d="M46.21,12.69l-6.97,3.37c-.23-.46-.47-.77-.6-1.24l6.48-3.96c.4.16.94,1.25,1.09,1.82Z" fill="#14b8a6"/>
  <path d="M22.2,45.92c-.37.18-.77.03-1.08-.22l1.75-7.04c.05-.19.1-.33.25-.36.17-.03.32.03.44.13.16.13,0,.27-.03.45l-1.32,7.04Z" fill="#14b8a6"/>
  <path d="M31.06,8.44c-.11.18-.21.26-.34.29-.12.02-.44-.01-.38-.23l1.77-7.3c.31-.12.84-.07,1.01.29l-2.06,6.96Z" fill="#14b8a6"/>
</svg>